<mxfile host="app.diagrams.net" modified="2024-05-15T03:05:33.210Z" agent="Mozilla/5.0 (Windows NT 10.0; Win64; x64) AppleWebKit/537.36 (KHTML, like Gecko) Chrome/124.0.0.0 Safari/537.36 Edg/124.0.0.0" version="22.1.18" etag="OIImRgR79q7qdjk3MOrs" type="github">
  <diagram name="Trang-1" id="uXdEVASCFuCI2IacCVBw">
    <mxGraphModel>
      <root>
        <mxCell id="0" />
        <mxCell id="1" parent="0" />
      </root>
    </mxGraphModel>
  </diagram>
</mxfile>
